<?xml version="1.0" encoding="UTF-8" standalone="no"?>
<!DOCTYPE svg PUBLIC "-//W3C//DTD SVG 1.1//EN"
 "http://www.w3.org/Graphics/SVG/1.1/DTD/svg11.dtd">
<!-- Generated by graphviz version 2.43.0 (0)
 -->
<!-- Title: Contagem de pontos de função para projetos de Data Science Pages: 1 -->
<svg width="1386pt" height="1087pt"
 viewBox="0.00 0.00 1386.00 1087.00" xmlns="http://www.w3.org/2000/svg" xmlns:xlink="http://www.w3.org/1999/xlink">
<g id="graph0" class="graph" transform="scale(1 1) rotate(0) translate(144 943)">
<title>Contagem de pontos de função para projetos de Data Science</title>
<polygon fill="white" stroke="transparent" points="-144,144 -144,-943 1242,-943 1242,144 -144,144"/>
<text text-anchor="middle" x="549" y="-9" font-family="Sans-Serif" font-size="15.00" fill="#2d3436">Contagem de pontos de função para projetos de Data Science</text>
<g id="clust1" class="cluster">
<title>cluster_Fronteira da solução</title>
<path fill="#e5f5fd" stroke="#aeb6be" d="M20,-216C20,-216 933,-216 933,-216 939,-216 945,-222 945,-228 945,-228 945,-692 945,-692 945,-698 939,-704 933,-704 933,-704 20,-704 20,-704 14,-704 8,-698 8,-692 8,-692 8,-228 8,-228 8,-222 14,-216 20,-216"/>
<text text-anchor="middle" x="77" y="-690.4" font-family="Sans-Serif" font-size="12.00" fill="#2d3436">Fronteira da solução</text>
</g>
<g id="clust2" class="cluster">
<title>cluster_Transações</title>
<path fill="#ebf3e7" stroke="#aeb6be" d="M28,-224C28,-224 925,-224 925,-224 931,-224 937,-230 937,-236 937,-236 937,-452 937,-452 937,-458 931,-464 925,-464 925,-464 28,-464 28,-464 22,-464 16,-458 16,-452 16,-452 16,-236 16,-236 16,-230 22,-224 28,-224"/>
<text text-anchor="middle" x="57.5" y="-450.4" font-family="Sans-Serif" font-size="12.00" fill="#2d3436">Transações</text>
</g>
<g id="clust3" class="cluster">
<title>cluster_Explorar dados</title>
<path fill="#ece8f6" stroke="#aeb6be" d="M36,-232C36,-232 293,-232 293,-232 299,-232 305,-238 305,-244 305,-244 305,-423 305,-423 305,-429 299,-435 293,-435 293,-435 36,-435 36,-435 30,-435 24,-429 24,-423 24,-423 24,-244 24,-244 24,-238 30,-232 36,-232"/>
<text text-anchor="middle" x="77.5" y="-421.4" font-family="Sans-Serif" font-size="12.00" fill="#2d3436">Explorar dados</text>
</g>
<g id="clust4" class="cluster">
<title>cluster_Preparar dados</title>
<path fill="#ece8f6" stroke="#aeb6be" d="M356,-232C356,-232 605,-232 605,-232 611,-232 617,-238 617,-244 617,-244 617,-423 617,-423 617,-429 611,-435 605,-435 605,-435 356,-435 356,-435 350,-435 344,-429 344,-423 344,-423 344,-244 344,-244 344,-238 350,-232 356,-232"/>
<text text-anchor="middle" x="398" y="-421.4" font-family="Sans-Serif" font-size="12.00" fill="#2d3436">Preparar dados</text>
</g>
<g id="clust5" class="cluster">
<title>cluster_Criar modelos</title>
<path fill="#ece8f6" stroke="#aeb6be" d="M668,-232C668,-232 917,-232 917,-232 923,-232 929,-238 929,-244 929,-244 929,-423 929,-423 929,-429 923,-435 917,-435 917,-435 668,-435 668,-435 662,-435 656,-429 656,-423 656,-423 656,-244 656,-244 656,-238 662,-232 668,-232"/>
<text text-anchor="middle" x="706.5" y="-421.4" font-family="Sans-Serif" font-size="12.00" fill="#2d3436">Criar modelos</text>
</g>
<g id="clust6" class="cluster">
<title>cluster_Dados</title>
<path fill="#ebf3e7" stroke="#aeb6be" d="M668,-472C668,-472 917,-472 917,-472 923,-472 929,-478 929,-484 929,-484 929,-663 929,-663 929,-669 923,-675 917,-675 917,-675 668,-675 668,-675 662,-675 656,-669 656,-663 656,-663 656,-484 656,-484 656,-478 662,-472 668,-472"/>
<text text-anchor="middle" x="683" y="-661.4" font-family="Sans-Serif" font-size="12.00" fill="#2d3436">Dados</text>
</g>
<g id="clust7" class="cluster">
<title>cluster_Destino</title>
<path fill="#e5f5fd" stroke="#aeb6be" d="M985,-560C985,-560 1078,-560 1078,-560 1084,-560 1090,-566 1090,-572 1090,-572 1090,-779 1090,-779 1090,-785 1084,-791 1078,-791 1078,-791 985,-791 985,-791 979,-791 973,-785 973,-779 973,-779 973,-572 973,-572 973,-566 979,-560 985,-560"/>
<text text-anchor="middle" x="1004" y="-777.4" font-family="Sans-Serif" font-size="12.00" fill="#2d3436">Destino</text>
</g>
<g id="clust8" class="cluster">
<title>cluster_Origem dos dados</title>
<path fill="#e5f5fd" stroke="#aeb6be" d="M32,-33C32,-33 134,-33 134,-33 140,-33 146,-39 146,-45 146,-45 146,-196 146,-196 146,-202 140,-208 134,-208 134,-208 32,-208 32,-208 26,-208 20,-202 20,-196 20,-196 20,-45 20,-45 20,-39 26,-33 32,-33"/>
<text text-anchor="middle" x="83" y="-194.4" font-family="Sans-Serif" font-size="12.00" fill="#2d3436">Origem dos dados</text>
</g>
<!-- a92fb81eaeed4c419e5a01a897762314 -->
<g id="node1" class="node">
<title>a92fb81eaeed4c419e5a01a897762314</title>
<image xlink:href="/home/humbertoserpro/diagramas/.env/lib/python3.8/site-packages/resources/azure/general/developertools.png" width="101px" height="108.496px" preserveAspectRatio="xMinYMin meet" x="32" y="-377.248"/>
<text text-anchor="middle" x="82.5" y="-257.6" font-family="Sans-Serif" font-size="13.00" fill="#2d3436">Estratégias de </text>
<text text-anchor="middle" x="82.5" y="-243.6" font-family="Sans-Serif" font-size="13.00" fill="#2d3436">obtenção</text>
</g>
<!-- a10ad9f257eb4687900028ad3300c8fc -->
<g id="node2" class="node">
<title>a10ad9f257eb4687900028ad3300c8fc</title>
<image xlink:href="/home/humbertoserpro/diagramas/.env/lib/python3.8/site-packages/resources/azure/analytics/stream-analytics-jobs.png" width="101px" height="101px" preserveAspectRatio="xMinYMin meet" x="196" y="-373.5"/>
<text text-anchor="middle" x="246.5" y="-257.6" font-family="Sans-Serif" font-size="13.00" fill="#2d3436">Obter dados</text>
<text text-anchor="middle" x="246.5" y="-243.6" font-family="Sans-Serif" font-size="13.00" fill="#2d3436">(CE/SE)</text>
</g>
<!-- a92fb81eaeed4c419e5a01a897762314&#45;&gt;a10ad9f257eb4687900028ad3300c8fc -->
<g id="edge1" class="edge">
<title>a92fb81eaeed4c419e5a01a897762314&#45;&gt;a10ad9f257eb4687900028ad3300c8fc</title>
<path fill="none" stroke="#7b8894" stroke-dasharray="5,2" d="M133.04,-323C153,-323 175.88,-323 195.84,-323"/>
</g>
<!-- a8be9379b023470697f9ba005ab97b01 -->
<g id="node3" class="node">
<title>a8be9379b023470697f9ba005ab97b01</title>
<image xlink:href="/home/humbertoserpro/diagramas/.env/lib/python3.8/site-packages/resources/azure/storage/storage-explorer.png" width="101px" height="101px" preserveAspectRatio="xMinYMin meet" x="352" y="-373.5"/>
<text text-anchor="middle" x="402.5" y="-257.6" font-family="Sans-Serif" font-size="13.00" fill="#2d3436">Técnicas de </text>
<text text-anchor="middle" x="402.5" y="-243.6" font-family="Sans-Serif" font-size="13.00" fill="#2d3436">preparação</text>
</g>
<!-- a10ad9f257eb4687900028ad3300c8fc&#45;&gt;a8be9379b023470697f9ba005ab97b01 -->
<g id="edge4" class="edge">
<title>a10ad9f257eb4687900028ad3300c8fc&#45;&gt;a8be9379b023470697f9ba005ab97b01</title>
<path fill="none" stroke="#7b8894" stroke-dasharray="5,2" d="M297.15,-323C314.68,-323 334.31,-323 351.84,-323"/>
</g>
<!-- f837a07f574f42439d2f27729d9f62b1 -->
<g id="node7" class="node">
<title>f837a07f574f42439d2f27729d9f62b1</title>
<image xlink:href="/home/humbertoserpro/diagramas/.env/lib/python3.8/site-packages/resources/azure/identity/app-registrations.png" width="101px" height="101px" preserveAspectRatio="xMinYMin meet" x="664" y="-613.5"/>
<text text-anchor="middle" x="714.5" y="-497.6" font-family="Sans-Serif" font-size="13.00" fill="#2d3436">Dados resultantes</text>
<text text-anchor="middle" x="714.5" y="-483.6" font-family="Sans-Serif" font-size="13.00" fill="#2d3436">(ALI)</text>
</g>
<!-- a10ad9f257eb4687900028ad3300c8fc&#45;&gt;f837a07f574f42439d2f27729d9f62b1 -->
<g id="edge12" class="edge">
<title>a10ad9f257eb4687900028ad3300c8fc&#45;&gt;f837a07f574f42439d2f27729d9f62b1</title>
<path fill="none" stroke="#7b8894" d="M264,-406.32C264,-489.32 264,-604.5 264,-604.5 264,-604.5 653.7,-604.5 653.7,-604.5"/>
<polygon fill="#7b8894" stroke="#7b8894" points="653.7,-608 663.7,-604.5 653.7,-601 653.7,-608"/>
</g>
<!-- 5e6e1b0b642941d08b4a20ed8997ec37 -->
<g id="node9" class="node">
<title>5e6e1b0b642941d08b4a20ed8997ec37</title>
<image xlink:href="/home/humbertoserpro/diagramas/.env/lib/python3.8/site-packages/resources/azure/compute/vm.png" width="101px" height="101px" preserveAspectRatio="xMinYMin meet" x="981" y="-715.5"/>
<text text-anchor="middle" x="1031.5" y="-599.6" font-family="Sans-Serif" font-size="13.00" fill="#2d3436">Aplicação</text>
<text text-anchor="middle" x="1031.5" y="-585.6" font-family="Sans-Serif" font-size="13.00" fill="#2d3436">Painél</text>
<text text-anchor="middle" x="1031.5" y="-571.6" font-family="Sans-Serif" font-size="13.00" fill="#2d3436">etc.</text>
</g>
<!-- a10ad9f257eb4687900028ad3300c8fc&#45;&gt;5e6e1b0b642941d08b4a20ed8997ec37 -->
<g id="edge14" class="edge">
<title>a10ad9f257eb4687900028ad3300c8fc&#45;&gt;5e6e1b0b642941d08b4a20ed8997ec37</title>
<path fill="none" stroke="#7b8894" d="M230,-406.14C230,-518.25 230,-704 230,-704 230,-704 970.75,-704 970.75,-704"/>
<polygon fill="#7b8894" stroke="#7b8894" points="970.75,-707.5 980.75,-704 970.75,-700.5 970.75,-707.5"/>
</g>
<!-- 324dc9ce84db433398a9ad5a60a19942 -->
<g id="node4" class="node">
<title>324dc9ce84db433398a9ad5a60a19942</title>
<image xlink:href="/home/humbertoserpro/diagramas/.env/lib/python3.8/site-packages/resources/azure/analytics/stream-analytics-jobs.png" width="101px" height="101px" preserveAspectRatio="xMinYMin meet" x="508" y="-373.5"/>
<text text-anchor="middle" x="558.5" y="-257.6" font-family="Sans-Serif" font-size="13.00" fill="#2d3436">Transformar dados</text>
<text text-anchor="middle" x="558.5" y="-243.6" font-family="Sans-Serif" font-size="13.00" fill="#2d3436">(EE)</text>
</g>
<!-- a8be9379b023470697f9ba005ab97b01&#45;&gt;324dc9ce84db433398a9ad5a60a19942 -->
<g id="edge2" class="edge">
<title>a8be9379b023470697f9ba005ab97b01&#45;&gt;324dc9ce84db433398a9ad5a60a19942</title>
<path fill="none" stroke="#7b8894" stroke-dasharray="5,2" d="M453.15,-323C470.68,-323 490.31,-323 507.84,-323"/>
</g>
<!-- 091584723e9f40fb80ac1a6a604edc19 -->
<g id="node5" class="node">
<title>091584723e9f40fb80ac1a6a604edc19</title>
<image xlink:href="/home/humbertoserpro/diagramas/.env/lib/python3.8/site-packages/resources/azure/ml/cognitive-services.png" width="101px" height="101px" preserveAspectRatio="xMinYMin meet" x="664" y="-373.5"/>
<text text-anchor="middle" x="714.5" y="-257.6" font-family="Sans-Serif" font-size="13.00" fill="#2d3436">Função de </text>
<text text-anchor="middle" x="714.5" y="-243.6" font-family="Sans-Serif" font-size="13.00" fill="#2d3436">modelagem</text>
</g>
<!-- 324dc9ce84db433398a9ad5a60a19942&#45;&gt;091584723e9f40fb80ac1a6a604edc19 -->
<g id="edge5" class="edge">
<title>324dc9ce84db433398a9ad5a60a19942&#45;&gt;091584723e9f40fb80ac1a6a604edc19</title>
<path fill="none" stroke="#7b8894" stroke-dasharray="5,2" d="M609.15,-323C626.68,-323 646.31,-323 663.84,-323"/>
</g>
<!-- 324dc9ce84db433398a9ad5a60a19942&#45;&gt;f837a07f574f42439d2f27729d9f62b1 -->
<g id="edge10" class="edge">
<title>324dc9ce84db433398a9ad5a60a19942&#45;&gt;f837a07f574f42439d2f27729d9f62b1</title>
<path fill="none" stroke="#7b8894" d="M576,-406.03C576,-460.43 576,-521.5 576,-521.5 576,-521.5 653.71,-521.5 653.71,-521.5"/>
<polygon fill="#7b8894" stroke="#7b8894" points="653.71,-525 663.71,-521.5 653.71,-518 653.71,-525"/>
</g>
<!-- 4153f0f392a44835b0d17b06456a05ff -->
<g id="node6" class="node">
<title>4153f0f392a44835b0d17b06456a05ff</title>
<image xlink:href="/home/humbertoserpro/diagramas/.env/lib/python3.8/site-packages/resources/azure/analytics/stream-analytics-jobs.png" width="101px" height="101px" preserveAspectRatio="xMinYMin meet" x="820" y="-373.5"/>
<text text-anchor="middle" x="870.5" y="-257.6" font-family="Sans-Serif" font-size="13.00" fill="#2d3436">Executar modelo</text>
<text text-anchor="middle" x="870.5" y="-243.6" font-family="Sans-Serif" font-size="13.00" fill="#2d3436">(EE)</text>
</g>
<!-- 091584723e9f40fb80ac1a6a604edc19&#45;&gt;4153f0f392a44835b0d17b06456a05ff -->
<g id="edge3" class="edge">
<title>091584723e9f40fb80ac1a6a604edc19&#45;&gt;4153f0f392a44835b0d17b06456a05ff</title>
<path fill="none" stroke="#7b8894" stroke-dasharray="5,2" d="M765.15,-323C782.68,-323 802.31,-323 819.84,-323"/>
</g>
<!-- 4153f0f392a44835b0d17b06456a05ff&#45;&gt;f837a07f574f42439d2f27729d9f62b1 -->
<g id="edge6" class="edge">
<title>4153f0f392a44835b0d17b06456a05ff&#45;&gt;f837a07f574f42439d2f27729d9f62b1</title>
<path fill="none" stroke="#7b8894" d="M871,-406.02C871,-426.65 871,-443 871,-443 871,-443 740,-443 740,-443 740,-443 740,-469.98 740,-469.98"/>
<polygon fill="#7b8894" stroke="#7b8894" points="736.5,-469.98 740,-479.98 743.5,-469.98 736.5,-469.98"/>
</g>
<!-- 4153f0f392a44835b0d17b06456a05ff&#45;&gt;f837a07f574f42439d2f27729d9f62b1 -->
<g id="edge15" class="edge">
<title>4153f0f392a44835b0d17b06456a05ff&#45;&gt;f837a07f574f42439d2f27729d9f62b1</title>
<path fill="none" stroke="#7b8894" d="M896,-406.35C896,-417.13 896,-424.5 896,-424.5 896,-424.5 715,-424.5 715,-424.5 715,-424.5 715,-469.64 715,-469.64"/>
<polygon fill="#7b8894" stroke="#7b8894" points="711.5,-469.64 715,-479.64 718.5,-469.64 711.5,-469.64"/>
</g>
<!-- f837a07f574f42439d2f27729d9f62b1&#45;&gt;324dc9ce84db433398a9ad5a60a19942 -->
<g id="edge9" class="edge">
<title>f837a07f574f42439d2f27729d9f62b1&#45;&gt;324dc9ce84db433398a9ad5a60a19942</title>
<path fill="none" stroke="#7b8894" d="M663.68,-563C612.79,-563 542,-563 542,-563 542,-563 542,-416.27 542,-416.27"/>
<polygon fill="#7b8894" stroke="#7b8894" points="545.5,-416.27 542,-406.27 538.5,-416.27 545.5,-416.27"/>
</g>
<!-- f837a07f574f42439d2f27729d9f62b1&#45;&gt;4153f0f392a44835b0d17b06456a05ff -->
<g id="edge11" class="edge">
<title>f837a07f574f42439d2f27729d9f62b1&#45;&gt;4153f0f392a44835b0d17b06456a05ff</title>
<path fill="none" stroke="#7b8894" d="M690,-479.65C690,-468.87 690,-461.5 690,-461.5 690,-461.5 846,-461.5 846,-461.5 846,-461.5 846,-416.36 846,-416.36"/>
<polygon fill="#7b8894" stroke="#7b8894" points="849.5,-416.36 846,-406.36 842.5,-416.36 849.5,-416.36"/>
</g>
<!-- 4675e93d4f46492a9d0d56c95eb6535d -->
<g id="node8" class="node">
<title>4675e93d4f46492a9d0d56c95eb6535d</title>
<image xlink:href="/home/humbertoserpro/diagramas/.env/lib/python3.8/site-packages/resources/azure/analytics/stream-analytics-jobs.png" width="101px" height="101px" preserveAspectRatio="xMinYMin meet" x="820" y="-613.5"/>
<text text-anchor="middle" x="870.5" y="-497.6" font-family="Sans-Serif" font-size="13.00" fill="#2d3436">Disponibilizar dados</text>
<text text-anchor="middle" x="870.5" y="-483.6" font-family="Sans-Serif" font-size="13.00" fill="#2d3436">(CE/SE)</text>
</g>
<!-- f837a07f574f42439d2f27729d9f62b1&#45;&gt;4675e93d4f46492a9d0d56c95eb6535d -->
<g id="edge13" class="edge">
<title>f837a07f574f42439d2f27729d9f62b1&#45;&gt;4675e93d4f46492a9d0d56c95eb6535d</title>
<path fill="none" stroke="#7b8894" d="M765.15,-563C765.15,-563 809.84,-563 809.84,-563"/>
<polygon fill="#7b8894" stroke="#7b8894" points="809.84,-566.5 819.84,-563 809.84,-559.5 809.84,-566.5"/>
</g>
<!-- 4675e93d4f46492a9d0d56c95eb6535d&#45;&gt;5e6e1b0b642941d08b4a20ed8997ec37 -->
<g id="edge7" class="edge">
<title>4675e93d4f46492a9d0d56c95eb6535d&#45;&gt;5e6e1b0b642941d08b4a20ed8997ec37</title>
<path fill="none" stroke="#7b8894" d="M921.44,-607C921.44,-607 970.89,-607 970.89,-607"/>
<polygon fill="#7b8894" stroke="#7b8894" points="970.89,-610.5 980.89,-607 970.89,-603.5 970.89,-610.5"/>
</g>
<!-- 0939a27590f14c9b950d0e45adfdc7cc -->
<g id="node10" class="node">
<title>0939a27590f14c9b950d0e45adfdc7cc</title>
<image xlink:href="/home/humbertoserpro/diagramas/.env/lib/python3.8/site-packages/resources/azure/analytics/data-factories.png" width="101px" height="101px" preserveAspectRatio="xMinYMin meet" x="32" y="-160.5"/>
<text text-anchor="middle" x="82.5" y="-45.1" font-family="Sans-Serif" font-size="13.00" fill="#2d3436">(AIE)</text>
</g>
<!-- 0939a27590f14c9b950d0e45adfdc7cc&#45;&gt;a10ad9f257eb4687900028ad3300c8fc -->
<g id="edge16" class="edge">
<title>0939a27590f14c9b950d0e45adfdc7cc&#45;&gt;a10ad9f257eb4687900028ad3300c8fc</title>
<path fill="none" stroke="firebrick" d="M133.2,-132.83C181.53,-132.83 247,-132.83 247,-132.83 247,-132.83 247,-229.87 247,-229.87"/>
<polygon fill="firebrick" stroke="firebrick" points="243.5,-229.87 247,-239.87 250.5,-229.87 243.5,-229.87"/>
<text text-anchor="middle" x="167" y="-260.6" font-family="Sans-Serif" font-size="13.00" fill="#2d3436">I</text>
</g>
<!-- 0939a27590f14c9b950d0e45adfdc7cc&#45;&gt;324dc9ce84db433398a9ad5a60a19942 -->
<g id="edge8" class="edge">
<title>0939a27590f14c9b950d0e45adfdc7cc&#45;&gt;324dc9ce84db433398a9ad5a60a19942</title>
<path fill="none" stroke="#7b8894" d="M133.04,-87.17C255.68,-87.17 559,-87.17 559,-87.17 559,-87.17 559,-229.85 559,-229.85"/>
<polygon fill="#7b8894" stroke="#7b8894" points="555.5,-229.85 559,-239.85 562.5,-229.85 555.5,-229.85"/>
</g>
</g>
</svg>
