<?xml version="1.0" encoding="UTF-8" standalone="no"?>
<!DOCTYPE svg PUBLIC "-//W3C//DTD SVG 1.1//EN"
 "http://www.w3.org/Graphics/SVG/1.1/DTD/svg11.dtd">
<!-- Generated by graphviz version 2.43.0 (0)
 -->
<!-- Title: Contagem de pontos de função para projetos de Data Science Pages: 1 -->
<svg width="1372pt" height="1000pt"
 viewBox="0.00 0.00 1372.00 1000.00" xmlns="http://www.w3.org/2000/svg" xmlns:xlink="http://www.w3.org/1999/xlink">
<g id="graph0" class="graph" transform="scale(1 1) rotate(0) translate(144 856)">
<title>Contagem de pontos de função para projetos de Data Science</title>
<polygon fill="white" stroke="transparent" points="-144,144 -144,-856 1228,-856 1228,144 -144,144"/>
<text text-anchor="middle" x="542" y="-9" font-family="Sans-Serif" font-size="15.00" fill="#2d3436">Contagem de pontos de função para projetos de Data Science</text>
<g id="clust1" class="cluster">
<title>cluster_Origem dos dados</title>
<path fill="#e5f5fd" stroke="#aeb6be" d="M32,-33C32,-33 134,-33 134,-33 140,-33 146,-39 146,-45 146,-45 146,-196 146,-196 146,-202 140,-208 134,-208 134,-208 32,-208 32,-208 26,-208 20,-202 20,-196 20,-196 20,-45 20,-45 20,-39 26,-33 32,-33"/>
<text text-anchor="middle" x="83" y="-194.4" font-family="Sans-Serif" font-size="12.00" fill="#2d3436">Origem dos dados</text>
</g>
<g id="clust2" class="cluster">
<title>cluster_Fronteira da solução</title>
<path fill="#e5f5fd" stroke="#aeb6be" d="M20,-216C20,-216 925,-216 925,-216 931,-216 937,-222 937,-228 937,-228 937,-692 937,-692 937,-698 931,-704 925,-704 925,-704 20,-704 20,-704 14,-704 8,-698 8,-692 8,-692 8,-228 8,-228 8,-222 14,-216 20,-216"/>
<text text-anchor="middle" x="77" y="-690.4" font-family="Sans-Serif" font-size="12.00" fill="#2d3436">Fronteira da solução</text>
</g>
<g id="clust3" class="cluster">
<title>cluster_Transações</title>
<path fill="#ebf3e7" stroke="#aeb6be" d="M28,-224C28,-224 917,-224 917,-224 923,-224 929,-230 929,-236 929,-236 929,-452 929,-452 929,-458 923,-464 917,-464 917,-464 28,-464 28,-464 22,-464 16,-458 16,-452 16,-452 16,-236 16,-236 16,-230 22,-224 28,-224"/>
<text text-anchor="middle" x="57.5" y="-450.4" font-family="Sans-Serif" font-size="12.00" fill="#2d3436">Transações</text>
</g>
<g id="clust4" class="cluster">
<title>cluster_Explorar dados</title>
<path fill="#ece8f6" stroke="#aeb6be" d="M36,-232C36,-232 289,-232 289,-232 295,-232 301,-238 301,-244 301,-244 301,-423 301,-423 301,-429 295,-435 289,-435 289,-435 36,-435 36,-435 30,-435 24,-429 24,-423 24,-423 24,-244 24,-244 24,-238 30,-232 36,-232"/>
<text text-anchor="middle" x="77.5" y="-421.4" font-family="Sans-Serif" font-size="12.00" fill="#2d3436">Explorar dados</text>
</g>
<g id="clust5" class="cluster">
<title>cluster_Preparar dados</title>
<path fill="#ece8f6" stroke="#aeb6be" d="M351,-232C351,-232 599,-232 599,-232 605,-232 611,-238 611,-244 611,-244 611,-423 611,-423 611,-429 605,-435 599,-435 599,-435 351,-435 351,-435 345,-435 339,-429 339,-423 339,-423 339,-244 339,-244 339,-238 345,-232 351,-232"/>
<text text-anchor="middle" x="393" y="-421.4" font-family="Sans-Serif" font-size="12.00" fill="#2d3436">Preparar dados</text>
</g>
<g id="clust6" class="cluster">
<title>cluster_Criar modelos</title>
<path fill="#ece8f6" stroke="#aeb6be" d="M661,-232C661,-232 909,-232 909,-232 915,-232 921,-238 921,-244 921,-244 921,-423 921,-423 921,-429 915,-435 909,-435 909,-435 661,-435 661,-435 655,-435 649,-429 649,-423 649,-423 649,-244 649,-244 649,-238 655,-232 661,-232"/>
<text text-anchor="middle" x="699.5" y="-421.4" font-family="Sans-Serif" font-size="12.00" fill="#2d3436">Criar modelos</text>
</g>
<g id="clust7" class="cluster">
<title>cluster_Dados</title>
<path fill="#ebf3e7" stroke="#aeb6be" d="M661,-472C661,-472 909,-472 909,-472 915,-472 921,-478 921,-484 921,-484 921,-663 921,-663 921,-669 915,-675 909,-675 909,-675 661,-675 661,-675 655,-675 649,-669 649,-663 649,-663 649,-484 649,-484 649,-478 655,-472 661,-472"/>
<text text-anchor="middle" x="676" y="-661.4" font-family="Sans-Serif" font-size="12.00" fill="#2d3436">Dados</text>
</g>
<g id="clust8" class="cluster">
<title>cluster_Destino</title>
<path fill="#e5f5fd" stroke="#aeb6be" d="M971,-465C971,-465 1064,-465 1064,-465 1070,-465 1076,-471 1076,-477 1076,-477 1076,-684 1076,-684 1076,-690 1070,-696 1064,-696 1064,-696 971,-696 971,-696 965,-696 959,-690 959,-684 959,-684 959,-477 959,-477 959,-471 965,-465 971,-465"/>
<text text-anchor="middle" x="990" y="-682.4" font-family="Sans-Serif" font-size="12.00" fill="#2d3436">Destino</text>
</g>
<!-- dd266425f6c2481fb4cb9d430ef7f961 -->
<g id="node1" class="node">
<title>dd266425f6c2481fb4cb9d430ef7f961</title>
<image xlink:href="/home/humbertoserpro/diagramas/.env/lib/python3.8/site-packages/resources/azure/analytics/data-factories.png" width="101px" height="101px" preserveAspectRatio="xMinYMin meet" x="32" y="-160.5"/>
<text text-anchor="middle" x="82.5" y="-45.1" font-family="Sans-Serif" font-size="13.00" fill="#2d3436">(AIE)</text>
</g>
<!-- 3a7b48059d6b4ea9b5cbafe8a6b37fe5 -->
<g id="node3" class="node">
<title>3a7b48059d6b4ea9b5cbafe8a6b37fe5</title>
<image xlink:href="/home/humbertoserpro/diagramas/.env/lib/python3.8/site-packages/resources/azure/analytics/stream-analytics-jobs.png" width="101px" height="101px" preserveAspectRatio="xMinYMin meet" x="192" y="-373.5"/>
<text text-anchor="middle" x="242.5" y="-257.6" font-family="Sans-Serif" font-size="13.00" fill="#2d3436">Obter dados</text>
<text text-anchor="middle" x="242.5" y="-243.6" font-family="Sans-Serif" font-size="13.00" fill="#2d3436">(CE/SE)</text>
</g>
<!-- dd266425f6c2481fb4cb9d430ef7f961&#45;&gt;3a7b48059d6b4ea9b5cbafe8a6b37fe5 -->
<g id="edge4" class="edge">
<title>dd266425f6c2481fb4cb9d430ef7f961&#45;&gt;3a7b48059d6b4ea9b5cbafe8a6b37fe5</title>
<path fill="none" stroke="#7b8894" d="M133.28,-132.83C180.3,-132.83 243,-132.83 243,-132.83 243,-132.83 243,-229.87 243,-229.87"/>
<polygon fill="#7b8894" stroke="#7b8894" points="239.5,-229.87 243,-239.87 246.5,-229.87 239.5,-229.87"/>
</g>
<!-- f5f324080f52444290b46aca3d6aac5e -->
<g id="node5" class="node">
<title>f5f324080f52444290b46aca3d6aac5e</title>
<image xlink:href="/home/humbertoserpro/diagramas/.env/lib/python3.8/site-packages/resources/azure/analytics/stream-analytics-jobs.png" width="101px" height="101px" preserveAspectRatio="xMinYMin meet" x="502" y="-373.5"/>
<text text-anchor="middle" x="552.5" y="-257.6" font-family="Sans-Serif" font-size="13.00" fill="#2d3436">Transformar dados</text>
<text text-anchor="middle" x="552.5" y="-243.6" font-family="Sans-Serif" font-size="13.00" fill="#2d3436">(EE)</text>
</g>
<!-- dd266425f6c2481fb4cb9d430ef7f961&#45;&gt;f5f324080f52444290b46aca3d6aac5e -->
<g id="edge9" class="edge">
<title>dd266425f6c2481fb4cb9d430ef7f961&#45;&gt;f5f324080f52444290b46aca3d6aac5e</title>
<path fill="none" stroke="#7b8894" d="M133.3,-87.17C254.96,-87.17 553,-87.17 553,-87.17 553,-87.17 553,-229.85 553,-229.85"/>
<polygon fill="#7b8894" stroke="#7b8894" points="549.5,-229.85 553,-239.85 556.5,-229.85 549.5,-229.85"/>
</g>
<!-- 3e6e5b7b90cc42a1906a893aef540ca2 -->
<g id="node2" class="node">
<title>3e6e5b7b90cc42a1906a893aef540ca2</title>
<image xlink:href="/home/humbertoserpro/diagramas/.env/lib/python3.8/site-packages/resources/azure/general/developertools.png" width="101px" height="108.496px" preserveAspectRatio="xMinYMin meet" x="32" y="-377.248"/>
<text text-anchor="middle" x="82.5" y="-257.6" font-family="Sans-Serif" font-size="13.00" fill="#2d3436">Estratégias de </text>
<text text-anchor="middle" x="82.5" y="-243.6" font-family="Sans-Serif" font-size="13.00" fill="#2d3436">obtenção</text>
</g>
<!-- 3e6e5b7b90cc42a1906a893aef540ca2&#45;&gt;3a7b48059d6b4ea9b5cbafe8a6b37fe5 -->
<g id="edge1" class="edge">
<title>3e6e5b7b90cc42a1906a893aef540ca2&#45;&gt;3a7b48059d6b4ea9b5cbafe8a6b37fe5</title>
<path fill="none" stroke="#7b8894" stroke-dasharray="5,2" d="M133.12,-323C151.89,-323 173.17,-323 191.93,-323"/>
</g>
<!-- 18326b02aca74b99be880a7004d222f6 -->
<g id="node4" class="node">
<title>18326b02aca74b99be880a7004d222f6</title>
<image xlink:href="/home/humbertoserpro/diagramas/.env/lib/python3.8/site-packages/resources/azure/storage/storage-explorer.png" width="101px" height="101px" preserveAspectRatio="xMinYMin meet" x="347" y="-373.5"/>
<text text-anchor="middle" x="397.5" y="-257.6" font-family="Sans-Serif" font-size="13.00" fill="#2d3436">Técnicas de </text>
<text text-anchor="middle" x="397.5" y="-243.6" font-family="Sans-Serif" font-size="13.00" fill="#2d3436">preparação</text>
</g>
<!-- 3a7b48059d6b4ea9b5cbafe8a6b37fe5&#45;&gt;18326b02aca74b99be880a7004d222f6 -->
<g id="edge5" class="edge">
<title>3a7b48059d6b4ea9b5cbafe8a6b37fe5&#45;&gt;18326b02aca74b99be880a7004d222f6</title>
<path fill="none" stroke="#7b8894" stroke-dasharray="5,2" d="M293.25,-323C310.47,-323 329.69,-323 346.9,-323"/>
</g>
<!-- 61f60362de5645dd94148108af6c4b7d -->
<g id="node8" class="node">
<title>61f60362de5645dd94148108af6c4b7d</title>
<image xlink:href="/home/humbertoserpro/diagramas/.env/lib/python3.8/site-packages/resources/azure/identity/app-registrations.png" width="101px" height="101px" preserveAspectRatio="xMinYMin meet" x="657" y="-613.5"/>
<text text-anchor="middle" x="707.5" y="-497.6" font-family="Sans-Serif" font-size="13.00" fill="#2d3436">Dados resultantes</text>
<text text-anchor="middle" x="707.5" y="-483.6" font-family="Sans-Serif" font-size="13.00" fill="#2d3436">(ALI)</text>
</g>
<!-- 3a7b48059d6b4ea9b5cbafe8a6b37fe5&#45;&gt;61f60362de5645dd94148108af6c4b7d -->
<g id="edge13" class="edge">
<title>3a7b48059d6b4ea9b5cbafe8a6b37fe5&#45;&gt;61f60362de5645dd94148108af6c4b7d</title>
<path fill="none" stroke="#7b8894" d="M226,-406.32C226,-489.32 226,-604.5 226,-604.5 226,-604.5 646.88,-604.5 646.88,-604.5"/>
<polygon fill="#7b8894" stroke="#7b8894" points="646.88,-608 656.88,-604.5 646.88,-601 646.88,-608"/>
</g>
<!-- eea4840b562a40d7a65852af3c32a2fc -->
<g id="node10" class="node">
<title>eea4840b562a40d7a65852af3c32a2fc</title>
<image xlink:href="/home/humbertoserpro/diagramas/.env/lib/python3.8/site-packages/resources/azure/compute/vm.png" width="101px" height="101px" preserveAspectRatio="xMinYMin meet" x="967" y="-620.5"/>
<text text-anchor="middle" x="1017.5" y="-504.6" font-family="Sans-Serif" font-size="13.00" fill="#2d3436">Aplicação</text>
<text text-anchor="middle" x="1017.5" y="-490.6" font-family="Sans-Serif" font-size="13.00" fill="#2d3436">Painél</text>
<text text-anchor="middle" x="1017.5" y="-476.6" font-family="Sans-Serif" font-size="13.00" fill="#2d3436">etc.</text>
</g>
<!-- 3a7b48059d6b4ea9b5cbafe8a6b37fe5&#45;&gt;eea4840b562a40d7a65852af3c32a2fc -->
<g id="edge15" class="edge">
<title>3a7b48059d6b4ea9b5cbafe8a6b37fe5&#45;&gt;eea4840b562a40d7a65852af3c32a2fc</title>
<path fill="none" stroke="#7b8894" d="M260,-406.3C260,-441.86 260,-475.33 260,-475.33 260,-475.33 956.92,-475.33 956.92,-475.33"/>
<polygon fill="#7b8894" stroke="#7b8894" points="956.92,-478.83 966.92,-475.33 956.92,-471.83 956.92,-478.83"/>
</g>
<!-- 18326b02aca74b99be880a7004d222f6&#45;&gt;f5f324080f52444290b46aca3d6aac5e -->
<g id="edge2" class="edge">
<title>18326b02aca74b99be880a7004d222f6&#45;&gt;f5f324080f52444290b46aca3d6aac5e</title>
<path fill="none" stroke="#7b8894" stroke-dasharray="5,2" d="M448.25,-323C465.47,-323 484.69,-323 501.9,-323"/>
</g>
<!-- 51034a655f1c47c58f55a521b88b161f -->
<g id="node6" class="node">
<title>51034a655f1c47c58f55a521b88b161f</title>
<image xlink:href="/home/humbertoserpro/diagramas/.env/lib/python3.8/site-packages/resources/azure/ml/cognitive-services.png" width="101px" height="101px" preserveAspectRatio="xMinYMin meet" x="657" y="-373.5"/>
<text text-anchor="middle" x="707.5" y="-257.6" font-family="Sans-Serif" font-size="13.00" fill="#2d3436">Função de </text>
<text text-anchor="middle" x="707.5" y="-243.6" font-family="Sans-Serif" font-size="13.00" fill="#2d3436">modelagem</text>
</g>
<!-- f5f324080f52444290b46aca3d6aac5e&#45;&gt;51034a655f1c47c58f55a521b88b161f -->
<g id="edge6" class="edge">
<title>f5f324080f52444290b46aca3d6aac5e&#45;&gt;51034a655f1c47c58f55a521b88b161f</title>
<path fill="none" stroke="#7b8894" stroke-dasharray="5,2" d="M603.25,-323C620.47,-323 639.69,-323 656.9,-323"/>
</g>
<!-- f5f324080f52444290b46aca3d6aac5e&#45;&gt;61f60362de5645dd94148108af6c4b7d -->
<g id="edge11" class="edge">
<title>f5f324080f52444290b46aca3d6aac5e&#45;&gt;61f60362de5645dd94148108af6c4b7d</title>
<path fill="none" stroke="#7b8894" d="M570,-406.03C570,-460.43 570,-521.5 570,-521.5 570,-521.5 646.69,-521.5 646.69,-521.5"/>
<polygon fill="#7b8894" stroke="#7b8894" points="646.69,-525 656.69,-521.5 646.69,-518 646.69,-525"/>
</g>
<!-- 37376a862eed4e498d58156c5603bcb5 -->
<g id="node7" class="node">
<title>37376a862eed4e498d58156c5603bcb5</title>
<image xlink:href="/home/humbertoserpro/diagramas/.env/lib/python3.8/site-packages/resources/azure/analytics/stream-analytics-jobs.png" width="101px" height="101px" preserveAspectRatio="xMinYMin meet" x="812" y="-373.5"/>
<text text-anchor="middle" x="862.5" y="-257.6" font-family="Sans-Serif" font-size="13.00" fill="#2d3436">Executar modelo</text>
<text text-anchor="middle" x="862.5" y="-243.6" font-family="Sans-Serif" font-size="13.00" fill="#2d3436">(EE)</text>
</g>
<!-- 51034a655f1c47c58f55a521b88b161f&#45;&gt;37376a862eed4e498d58156c5603bcb5 -->
<g id="edge3" class="edge">
<title>51034a655f1c47c58f55a521b88b161f&#45;&gt;37376a862eed4e498d58156c5603bcb5</title>
<path fill="none" stroke="#7b8894" stroke-dasharray="5,2" d="M758.25,-323C775.47,-323 794.69,-323 811.9,-323"/>
</g>
<!-- 37376a862eed4e498d58156c5603bcb5&#45;&gt;61f60362de5645dd94148108af6c4b7d -->
<g id="edge7" class="edge">
<title>37376a862eed4e498d58156c5603bcb5&#45;&gt;61f60362de5645dd94148108af6c4b7d</title>
<path fill="none" stroke="#7b8894" d="M838,-406.02C838,-430.4 838,-450.67 838,-450.67 838,-450.67 733,-450.67 733,-450.67 733,-450.67 733,-469.89 733,-469.89"/>
<polygon fill="#7b8894" stroke="#7b8894" points="729.5,-469.89 733,-479.89 736.5,-469.89 729.5,-469.89"/>
</g>
<!-- 37376a862eed4e498d58156c5603bcb5&#45;&gt;61f60362de5645dd94148108af6c4b7d -->
<g id="edge16" class="edge">
<title>37376a862eed4e498d58156c5603bcb5&#45;&gt;61f60362de5645dd94148108af6c4b7d</title>
<path fill="none" stroke="#7b8894" d="M863,-406.25C863,-419.17 863,-428.33 863,-428.33 863,-428.33 708,-428.33 708,-428.33 708,-428.33 708,-469.63 708,-469.63"/>
<polygon fill="#7b8894" stroke="#7b8894" points="704.5,-469.63 708,-479.63 711.5,-469.63 704.5,-469.63"/>
</g>
<!-- 61f60362de5645dd94148108af6c4b7d&#45;&gt;f5f324080f52444290b46aca3d6aac5e -->
<g id="edge10" class="edge">
<title>61f60362de5645dd94148108af6c4b7d&#45;&gt;f5f324080f52444290b46aca3d6aac5e</title>
<path fill="none" stroke="#7b8894" d="M656.97,-563C606.38,-563 536,-563 536,-563 536,-563 536,-416.27 536,-416.27"/>
<polygon fill="#7b8894" stroke="#7b8894" points="539.5,-416.27 536,-406.27 532.5,-416.27 539.5,-416.27"/>
</g>
<!-- 61f60362de5645dd94148108af6c4b7d&#45;&gt;37376a862eed4e498d58156c5603bcb5 -->
<g id="edge12" class="edge">
<title>61f60362de5645dd94148108af6c4b7d&#45;&gt;37376a862eed4e498d58156c5603bcb5</title>
<path fill="none" stroke="#7b8894" d="M683,-479.78C683,-478.42 683,-477.67 683,-477.67 683,-477.67 888,-477.67 888,-477.67 888,-477.67 888,-416.22 888,-416.22"/>
<polygon fill="#7b8894" stroke="#7b8894" points="891.5,-416.22 888,-406.22 884.5,-416.22 891.5,-416.22"/>
</g>
<!-- 08362d00b90542ce8c0a1fa521bffae9 -->
<g id="node9" class="node">
<title>08362d00b90542ce8c0a1fa521bffae9</title>
<image xlink:href="/home/humbertoserpro/diagramas/.env/lib/python3.8/site-packages/resources/azure/analytics/stream-analytics-jobs.png" width="101px" height="101px" preserveAspectRatio="xMinYMin meet" x="812" y="-613.5"/>
<text text-anchor="middle" x="862.5" y="-497.6" font-family="Sans-Serif" font-size="13.00" fill="#2d3436">Disponibilizar dados</text>
<text text-anchor="middle" x="862.5" y="-483.6" font-family="Sans-Serif" font-size="13.00" fill="#2d3436">(CE/SE)</text>
</g>
<!-- 61f60362de5645dd94148108af6c4b7d&#45;&gt;08362d00b90542ce8c0a1fa521bffae9 -->
<g id="edge14" class="edge">
<title>61f60362de5645dd94148108af6c4b7d&#45;&gt;08362d00b90542ce8c0a1fa521bffae9</title>
<path fill="none" stroke="#7b8894" d="M758.25,-563C758.25,-563 801.9,-563 801.9,-563"/>
<polygon fill="#7b8894" stroke="#7b8894" points="801.9,-566.5 811.9,-563 801.9,-559.5 801.9,-566.5"/>
</g>
<!-- 08362d00b90542ce8c0a1fa521bffae9&#45;&gt;eea4840b562a40d7a65852af3c32a2fc -->
<g id="edge8" class="edge">
<title>08362d00b90542ce8c0a1fa521bffae9&#45;&gt;eea4840b562a40d7a65852af3c32a2fc</title>
<path fill="none" stroke="#7b8894" d="M913.25,-563C913.25,-563 956.9,-563 956.9,-563"/>
<polygon fill="#7b8894" stroke="#7b8894" points="956.9,-566.5 966.9,-563 956.9,-559.5 956.9,-566.5"/>
</g>
</g>
</svg>
